<?xml version="1.0" encoding="utf-8"?>
<!-- Generator: Adobe Illustrator 25.0.1, SVG Export Plug-In . SVG Version: 6.00 Build 0)  -->
<svg version="1.1" id="Calque_1" xmlns="http://www.w3.org/2000/svg" xmlns:xlink="http://www.w3.org/1999/xlink" x="0px" y="0px"
	 viewBox="0 0 212 74" style="enable-background:new 0 0 212 74;" xml:space="preserve">
<style type="text/css">
	.st0{fill:#F73934;}
	.st1{fill:#FFFFFF;}
</style>
<g>
	<polygon class="st0" points="22.17,27.05 12.13,27.05 12.13,9.75 7.03,9.75 7.03,32 22.17,32 	"/>
	<path class="st0" d="M36.34,27.82L37.99,32h5.86L33.83,8.91h-0.82L22.99,32h5.12l1.74-4.18H36.34z M33.18,19.82l1.41,3.57H31.7
		L33.18,19.82z"/>
	<polygon class="st0" points="66.3,31.71 66.76,31.71 73.05,22.77 73.05,32 78.15,32 78.15,9.32 78.09,8.88 77.42,8.88 66.56,23.91 
		56.1,9.07 55.94,8.88 55.26,8.88 55.26,32 60.21,32 60.21,23.38 66.11,31.52 	"/>
	<path class="st0" d="M95.13,32h5.86L90.97,8.91h-0.82L80.13,32h5.12L87,27.82h6.48L95.13,32z M90.32,19.82l1.41,3.57h-2.89
		L90.32,19.82z"/>
	<path class="st0" d="M114.96,23.66c0,0.6-0.17,1.15-0.52,1.7c-0.35,0.55-0.85,1.01-1.48,1.36c-0.63,0.35-1.32,0.52-2.08,0.52
		c-0.69,0-1.35-0.18-1.96-0.52c-0.61-0.35-1.11-0.81-1.47-1.37c-0.36-0.55-0.54-1.11-0.54-1.7V9.75h-5.1v14
		c0,1.61,0.41,3.08,1.21,4.37c0.8,1.29,1.91,2.31,3.29,3.03c1.37,0.72,2.91,1.08,4.56,1.08c1.65,0,3.19-0.36,4.57-1.08
		c1.39-0.72,2.51-1.74,3.32-3.03c0.82-1.29,1.23-2.77,1.23-4.37v-14h-5.04V23.66z"/>
	<polygon class="st0" points="142.98,9.75 137.01,9.75 132.72,21.02 128.15,9.75 122.12,9.75 132.55,33.65 	"/>
	<path class="st0" d="M150.84,8.91h-0.82L140,32h5.12l1.74-4.18h6.48l1.65,4.18h5.86L150.84,8.91z M148.72,23.39l1.47-3.57
		l1.41,3.57H148.72z"/>
	<rect x="162.84" y="9.75" class="st0" width="5.1" height="22.25"/>
	<path class="st0" d="M186.25,25.66c0-1.35-0.26-2.49-0.77-3.38c-0.51-0.89-1.16-1.6-1.93-2.11c-0.74-0.49-1.64-0.93-2.67-1.31
		c-1.2-0.45-2.17-0.93-2.88-1.42c-0.62-0.43-0.92-0.89-0.92-1.42c0-0.59,0.19-1.01,0.58-1.29c0.43-0.31,1.07-0.47,1.9-0.47
		c1.29,0,2.85,0.5,4.63,1.48l0.41,0.22l1.98-3.99l-0.33-0.22c-1.03-0.67-2.11-1.2-3.21-1.57c-1.1-0.37-2.49-0.56-4.13-0.56
		c0,0,0,0-0.01,0c-2.11,0.1-3.83,0.76-5.11,1.95c-1.3,1.2-1.96,2.81-1.96,4.77c0,1.35,0.33,2.49,0.97,3.39
		c0.63,0.88,1.38,1.57,2.25,2.05c0.82,0.45,1.86,0.93,3.1,1.42c1.87,0.74,2.82,1.56,2.82,2.46c0,0.7-0.24,1.16-0.76,1.46
		c-0.59,0.34-1.29,0.51-2.1,0.51c-0.7,0-1.51-0.17-2.4-0.5c-0.9-0.33-1.72-0.76-2.41-1.28l-0.4-0.3l-2.3,4.06l0.33,0.23
		c1.12,0.8,2.34,1.4,3.64,1.79c1.29,0.39,2.61,0.58,3.93,0.58c1.59,0,2.99-0.29,4.15-0.87c1.17-0.59,2.08-1.39,2.69-2.4
		C185.94,27.95,186.25,26.84,186.25,25.66z"/>
	<polygon class="st0" points="194.58,27.05 194.58,23.32 203.75,23.32 203.75,18.37 194.58,18.37 194.58,14.7 204.94,14.7 
		204.94,9.75 189.49,9.75 189.49,32 205.35,32 205.35,27.05 	"/>
	<g>
		<path class="st1" d="M22.32,49.78c0.79-0.59,1.43-1.32,1.91-2.18c0.6-1.08,0.9-2.35,0.9-3.77c0-2.35-0.89-4.18-2.66-5.43
			c-1.72-1.22-4.09-1.83-7.04-1.83H7.03v28.02h9.48c2.79,0,5.15-0.68,7.02-2.02c1.92-1.37,2.9-3.53,2.9-6.43
			c0-1.49-0.43-2.83-1.29-3.97C24.43,51.22,23.49,50.42,22.32,49.78z M18.71,44.97c0,0.78-0.23,1.41-0.7,1.93
			c-0.46,0.51-1.1,0.76-1.95,0.76h-2.8v-5.05h2.43c0.97,0,1.74,0.21,2.27,0.62C18.47,43.63,18.71,44.2,18.71,44.97z M13.26,53.71
			h2.62c4.13,0,4.13,1.83,4.13,2.43c0,0.86-0.31,1.48-0.96,1.89c-0.7,0.45-1.64,0.68-2.8,0.68h-2.98V53.71z"/>
		<path class="st1" d="M50.63,38.23c-2.19-1.3-4.59-1.96-7.14-1.96c-2.55,0-4.95,0.66-7.14,1.96c-2.18,1.3-3.94,3.07-5.21,5.26
			c-1.28,2.2-1.92,4.59-1.92,7.12c0,2.58,0.65,4.98,1.92,7.16c1.27,2.17,3.02,3.92,5.19,5.19c2.17,1.28,4.58,1.92,7.16,1.92
			c2.55,0,4.95-0.65,7.14-1.92c2.18-1.27,3.95-3.02,5.24-5.19c1.3-2.17,1.96-4.58,1.96-7.16c0-2.53-0.66-4.92-1.96-7.12
			C54.57,41.3,52.81,39.53,50.63,38.23z M47.61,57.73c-1.18,0.73-2.5,1.09-3.93,1.09c-1.48,0-2.85-0.37-4.07-1.1
			c-1.22-0.73-2.19-1.74-2.9-2.99c-0.71-1.25-1.07-2.64-1.07-4.13c0-1.54,0.35-2.95,1.05-4.21c0.7-1.25,1.65-2.26,2.85-2.99
			c1.19-0.73,2.53-1.1,3.99-1.1c1.46,0,2.8,0.37,3.99,1.1c1.19,0.73,2.15,1.74,2.85,2.99c0.7,1.25,1.05,2.67,1.05,4.21
			c0,1.52-0.34,2.91-1.02,4.16C49.73,56.01,48.79,57,47.61,57.73z"/>
		<path class="st1" d="M78.44,54.11c0,0.77-0.23,1.52-0.69,2.23c-0.46,0.72-1.11,1.32-1.92,1.77c-0.81,0.45-1.72,0.68-2.7,0.68
			c-0.9,0-1.76-0.23-2.54-0.68c-0.79-0.45-1.44-1.05-1.91-1.77c-0.47-0.71-0.7-1.46-0.7-2.23V36.56h-6.24v17.66
			c0,2.02,0.51,3.86,1.52,5.49c1.01,1.62,2.4,2.9,4.13,3.81c1.73,0.9,3.66,1.36,5.74,1.36c2.08,0,4.01-0.46,5.75-1.36
			c1.75-0.9,3.15-2.19,4.17-3.81c1.02-1.63,1.54-3.47,1.54-5.49V36.56h-6.16V54.11z"/>
		<polygon class="st1" points="88.32,42.61 94.66,42.61 94.66,64.58 100.89,64.58 100.89,42.61 107.49,42.61 107.49,36.56 
			88.32,36.56 		"/>
		<rect x="111.76" y="36.56" class="st1" width="6.24" height="28.02"/>
		<path class="st1" d="M150.3,55.16c0.51-1.45,0.76-2.99,0.76-4.55c0-2.53-0.66-4.92-1.96-7.12c-1.3-2.19-3.06-3.96-5.24-5.26
			c-2.19-1.3-4.59-1.96-7.14-1.96s-4.95,0.66-7.14,1.96c-2.18,1.3-3.93,3.07-5.21,5.26c-1.28,2.2-1.92,4.59-1.92,7.12
			c0,2.58,0.65,4.98,1.92,7.16c1.27,2.17,3.02,3.92,5.19,5.19c2.17,1.28,4.58,1.92,7.16,1.92c0.92,0,1.89-0.1,2.88-0.29h12.97v-6.12
			h-3.9C149.35,57.44,149.89,56.33,150.3,55.16z M143.6,46.5c0.7,1.24,1.05,2.63,1.05,4.11c0,1.49-0.34,2.88-1.01,4.12
			c-0.67,1.24-1.61,2.24-2.79,2.97c-1.18,0.73-2.5,1.09-3.93,1.09c-1.48,0-2.85-0.37-4.07-1.1c-1.22-0.73-2.19-1.73-2.9-2.97
			c-0.71-1.24-1.07-2.62-1.07-4.11c0-1.49,0.35-2.87,1.05-4.11c0.7-1.24,1.65-2.23,2.85-2.95c1.19-0.72,2.53-1.08,3.99-1.08
			c1.43,0,2.77,0.36,3.97,1.08C141.94,44.26,142.9,45.26,143.6,46.5z"/>
		<path class="st1" d="M173.18,54.11c0,0.77-0.23,1.52-0.69,2.23c-0.46,0.72-1.11,1.31-1.92,1.77c-0.81,0.45-1.72,0.68-2.7,0.68
			c-0.9,0-1.76-0.23-2.54-0.68c-0.8-0.45-1.44-1.05-1.91-1.77c-0.46-0.71-0.7-1.46-0.7-2.23V36.56h-6.24v17.66
			c0,2.02,0.51,3.86,1.52,5.49c1.01,1.62,2.4,2.9,4.14,3.81c1.73,0.9,3.66,1.36,5.74,1.36c2.08,0,4.01-0.46,5.75-1.36
			c1.75-0.91,3.15-2.19,4.17-3.81c1.02-1.63,1.54-3.47,1.54-5.49V36.56h-6.16V54.11z"/>
		<polygon class="st1" points="191.14,53.56 202.79,53.56 202.79,47.51 191.14,47.51 191.14,42.61 204.3,42.61 204.3,36.56 
			184.9,36.56 184.9,64.58 204.81,64.58 204.81,58.53 191.14,58.53 		"/>
	</g>
</g>
</svg>
