<?xml version="1.0" encoding="utf-8"?>
<!-- Generator: Adobe Illustrator 25.0.1, SVG Export Plug-In . SVG Version: 6.00 Build 0)  -->
<svg version="1.1" xmlns="http://www.w3.org/2000/svg" xmlns:xlink="http://www.w3.org/1999/xlink" x="0px" y="0px"
	 viewBox="0 0 37.6 36.1" style="enable-background:new 0 0 37.6 36.1;" xml:space="preserve">
<style type="text/css">
	.st0{fill:#F49C9C;}
	.st1{fill:none;stroke:#000000;stroke-width:1.6;stroke-linecap:round;stroke-linejoin:round;}
</style>
<g id="Calque_1">
	<path id="Tracé_152" class="st0" d="M26.7,18.8L30,2.1l5.7,1.1l-4.1,20.4L26,22.5"/>
	<g id="Groupe_152-2" transform="translate(16.742 15)">
		<path id="Tracé_153" class="st1" d="M-13.1,19.4H8.4L5.6,4.7v-8.5"/>
		<path id="Tracé_154" class="st1" d="M5.6-7.5h-6.7v-6.7h-14.8v17l2.8,11.2"/>
		<path id="Tracé_155" class="st1" d="M5.6-7.5h-6.7v-6.7L5.6-7.5z"/>
		<line id="Ligne_81" class="st1" x1="-1.3" y1="15.8" x2="4.6" y2="15.8"/>
	</g>
	<line id="Ligne_82" class="st1" x1="3.7" y1="31.7" x2="3.7" y2="31.7"/>
	<path id="Tracé_156" class="st1" d="M26.7,18.8L30,2.1l5.7,1.1l-4.1,20.4L26,22.5"/>
	<path id="Tracé_157" class="st1" d="M26,22.5l1.6,6.9l4.1-5.7L26,22.5z"/>
	<path class="st1" d="M8.9,21.2c-0.9-0.1-1.6-0.7-2-1.5c-0.3-0.5-0.3-1.1-0.1-1.6c0.2-0.5,0.7-1,1.3-1c0.6,0,1.2,0.4,1.2,0.9
		c-0.1-1.5-0.1-3.1,0.3-4.6c0.3-0.8,0.8-1.7,1.6-1.8c0.7-0.1,1.3,0.4,1.7,1s0.4,1.3,0.4,2c0,1-0.2,2-0.4,3c0.3-0.4,0.8-0.5,1.3-0.3
		c0.4,0.2,0.8,0.6,1,1c0.4,0.6,0.7,1.3,0.8,2c0.1,0.3,0.1,0.6-0.1,0.9c-0.1,0.2-0.3,0.3-0.5,0.4C14.6,21.9,13.8,22,13,22"/>
</g>
<g id="Calque_2">
</g>
</svg>
