<?xml version="1.0" encoding="utf-8"?>
<!-- Generator: Adobe Illustrator 25.0.1, SVG Export Plug-In . SVG Version: 6.00 Build 0)  -->
<svg version="1.1" id="Calque_1" xmlns="http://www.w3.org/2000/svg" xmlns:xlink="http://www.w3.org/1999/xlink" x="0px" y="0px"
	 viewBox="0 0 32.4 37.8" style="enable-background:new 0 0 32.4 37.8;" xml:space="preserve">
<style type="text/css">
	.st0{fill:#F49C9C;}
	.st1{fill:none;stroke:#000000;stroke-width:1.6;stroke-linecap:round;stroke-linejoin:round;}
</style>
<g id="Groupe_147" transform="translate(-14.094 -8.112)">
	<path id="Tracé_123" class="st0" d="M34.1,9.1c-1.1,0.6-2.4,0.9-3.6,0.8c-1.3,0.1-2.5-0.2-3.6-0.8c-2.4,0.8-7.2,2.9-5.4,4.4
		c2.2,1.9,9.1,0,9.1,0s6.9,1.9,9.1,0C41.3,12,36.4,9.9,34.1,9.1z"/>
	<path id="Tracé_124" class="st1" d="M21.8,24.4l1,18.1h7.7"/>
	<path id="Tracé_125_2_" class="st1" d="M22.2,33.1l-3.4,1.1l0.3-3.6h-3.4l2.7-11.8c0.3-2,1.4-3.7,3.2-4.7"/>
	<path id="Tracé_127" class="st1" d="M30.4,9.9c-1.3,0.1-2.5-0.2-3.6-0.8c0,0,0,4.4,3.6,4.4"/>
	<path id="Tracé_128" class="st1" d="M26.8,9.1c-2.4,0.8-7.2,2.9-5.4,4.4c2.2,1.9,9.1,0,9.1,0"/>
	<path id="Tracé_129" class="st1" d="M38.9,27.1l-0.9,15.5h-7.7"/>
	<path id="Tracé_130" class="st1" d="M39.1,24.4"/>
	<path id="Tracé_131" class="st1" d="M38.4,37.8l3,7.3l4.4-1.7l-3.3-24.6c-0.1-1-0.5-1.9-1-2.7"/>
	<path id="Tracé_132" class="st1" d="M30.4,9.9c1.3,0.1,2.5-0.2,3.6-0.8c0,0,0,4.4-3.6,4.4"/>
	<path id="Tracé_133" class="st1" d="M34,9.1c2.4,0.8,7.2,2.9,5.4,4.4c-2.2,1.9-9.1,0-9.1,0"/>
	<line id="Ligne_64" class="st1" x1="39.1" y1="24.4" x2="39.1" y2="24.4"/>
	<line id="Ligne_65" class="st1" x1="28.6" y1="14.3" x2="28.6" y2="23.4"/>
	<line id="Ligne_66" class="st1" x1="32.2" y1="14.3" x2="32.2" y2="20.7"/>
</g>
</svg>
