<?xml version="1.0" encoding="utf-8"?>
<!-- Generator: Adobe Illustrator 25.0.1, SVG Export Plug-In . SVG Version: 6.00 Build 0)  -->
<svg version="1.1" id="Calque_1" xmlns="http://www.w3.org/2000/svg" xmlns:xlink="http://www.w3.org/1999/xlink" x="0px" y="0px"
	 viewBox="0 0 24.6 37.6" style="enable-background:new 0 0 24.6 37.6;" xml:space="preserve">
<style type="text/css">
	.st0{fill:#F49C9C;}
	.st1{fill:none;stroke:#000000;stroke-width:1.6;stroke-linecap:round;stroke-linejoin:round;}
</style>
<g id="Groupe_141" transform="translate(-17.725 -10.016)">
	<ellipse id="Ellipse_19" class="st0" cx="33" cy="33.5" rx="8.5" ry="3.7"/>
	<g id="Groupe_144" transform="translate(18.525 20.462)">
		<line id="Ligne_61" class="st1" x1="23" y1="13" x2="23" y2="1.3"/>
		<line id="Ligne_62" class="st1" x1="6" y1="-6" x2="6" y2="13"/>
		<line id="Ligne_63" class="st1" x1="23" y1="-4.4" x2="23" y2="2.4"/>
		<path id="Tracé_115" class="st1" d="M9.5,10c1.6-0.5,3.3-0.7,5-0.7c4.8,0,8.5,1.4,8.5,3.7"/>
		<path id="Tracé_116" class="st1" d="M23,13c0,2-3.8,3.7-8.5,3.7S6,15.1,6,13"/>
		<path id="Tracé_117" class="st1" d="M22.1-7.6c-1.3-1-2.8-1.6-4.4-1.8c-2.2-0.4-4.3-0.4-6.5,0C8.1-8.8,5.9-7.5,5.9-6"/>
		<path id="Tracé_118" class="st1" d="M5.9,8.3H3.1C1.4,8.3,0,7,0,5.2V2.7C0,1,1.4-0.4,3.1-0.4l0,0"/>
	</g>
	<line class="st1" x1="28.7" y1="39.1" x2="28.7" y2="46.3"/>
	<line class="st1" x1="33" y1="39.1" x2="33" y2="46.3"/>
	<line class="st1" x1="37.3" y1="39.1" x2="37.3" y2="46.3"/>
</g>
</svg>
