<?xml version="1.0" encoding="utf-8"?>
<!-- Generator: Adobe Illustrator 25.0.1, SVG Export Plug-In . SVG Version: 6.00 Build 0)  -->
<svg version="1.1" id="Calque_1" xmlns="http://www.w3.org/2000/svg" xmlns:xlink="http://www.w3.org/1999/xlink" x="0px" y="0px"
	 viewBox="0 0 27.6 37.6" style="enable-background:new 0 0 27.6 37.6;" xml:space="preserve">
<style type="text/css">
	.st0{fill:#F49C9C;}
	.st1{fill:none;stroke:#000000;stroke-width:1.6;stroke-linecap:round;stroke-linejoin:round;}
</style>
<g id="Groupe_150" transform="translate(-16.347 -9.2)">
	<path id="Tracé_143" class="st0" d="M21.6,46c2.5,0,4.4-2,4.4-4.4h17.1c0,2.5-2,4.4-4.4,4.4c0,0,0,0,0,0H27.5"/>
	<line id="Ligne_74" class="st1" x1="38.7" y1="28" x2="38.7" y2="41.6"/>
	<path id="Tracé_144" class="st1" d="M17.1,41.7V16h12.3"/>
	<path id="Tracé_145" class="st1" d="M17.1,41.6c0,2.5,2,4.4,4.4,4.4s4.4-2,4.4-4.4h17.1c0,2.5-2,4.4-4.4,4.4c0,0,0,0,0,0H27.5"/>
	<path id="Tracé_146" class="st1" d="M20.3,16l7.9-6l7.3,5.4"/>
</g>
<polyline class="st1" points="13.1,8.7 10.7,14.7 17.6,13.8 16.8,19.7 22.3,18.8 "/>
</svg>
